<?xml version="1.0" encoding="iso-8859-1"?>
<!-- Generator: Adobe Illustrator 19.0.0, SVG Export Plug-In . SVG Version: 6.00 Build 0)  -->
<svg version="1.1" id="Capa_1" xmlns="http://www.w3.org/2000/svg" xmlns:xlink="http://www.w3.org/1999/xlink" x="0px" y="0px"
	 viewBox="0 0 512 512" style="enable-background:new 0 0 512 512;" xml:space="preserve">
<path style="fill:#293C7D;" d="M256,512C114.611,512,0,397.389,0,256S114.611,0,256,0s256,114.611,256,256
	C511.861,397.326,397.326,511.861,256,512z M256,43.321C138.539,43.397,43.372,138.666,43.448,256.127
	s95.344,212.628,212.806,212.552C373.664,468.603,468.806,373.41,468.806,256C468.666,138.552,373.448,43.397,256,43.321z"/>
<path style="fill:#4899D2;" d="M216.226,334.409L216.226,334.409c-5.801-0.089-11.324-2.508-15.327-6.714l-54.468-56.748
	c-7.866-9.006-6.942-22.699,2.065-30.565c8.398-7.334,20.977-7.094,29.096,0.545l38.634,41.041l103.869-102.603
	c8.069-8.842,21.762-9.462,30.603-1.393s9.462,21.762,1.393,30.603c-0.507,0.557-1.039,1.077-1.596,1.583L231.173,328.215
	C227.183,332.129,221.824,334.345,216.226,334.409z"/>
<g>
</g>
<g>
</g>
<g>
</g>
<g>
</g>
<g>
</g>
<g>
</g>
<g>
</g>
<g>
</g>
<g>
</g>
<g>
</g>
<g>
</g>
<g>
</g>
<g>
</g>
<g>
</g>
<g>
</g>
</svg>
