<svg id="Layer_1" enable-background="new 0 0 480 480" height="512" viewBox="0 0 480 480" width="512" xmlns="http://www.w3.org/2000/svg"><path d="m358.5 80v360c0 17.67-14.33 32-32 32h-262c-17.67 0-32-14.33-32-32v-360c0-17.67 14.33-32 32-32h262c17.67 0 32 14.33 32 32z" fill="#d1e7ff"/><path d="m337.336 49.881c31.362 11.285 22.557 58.119-10.774 58.119h-130.062c-57.438 0-104 46.562-104 104v228.062c0 33.331-46.834 42.136-58.119 10.774-1.217-3.384-1.881-7.033-1.881-10.836v-360c0-17.673 14.327-32 32-32 282.493 0 265.366-.807 272.836 1.881z" fill="#e8f3ff"/><path d="m279.5 48v30c0 13.25-10.75 24-24 24h-120c-13.25 0-24-10.75-24-24v-30z" fill="#d1e7ff"/><path d="m447.5 219v190c0 13.25-10.75 24-24 24h-190c-13.25 0-24-10.75-24-24v-190c0-13.25 10.75-24 24-24h190c13.25 0 24 10.75 24 24z" fill="#b9dcff"/><path d="m144.5 367v18c0 13.23-10.77 24-24 24h-18c-13.23 0-24-10.77-24-24v-18c0-13.23 10.77-24 24-24h18c13.23 0 24 10.77 24 24z" fill="#e8f3ff"/><path d="m423.437 235h-109.937c-35.346 0-64 28.654-64 64v109.937c0 25.172-37.543 27.395-39.894 2.333-.165-1.759-.106-193.27-.106-192.27 0-13.255 10.745-24 24-24h190c27.258 0 26.007 40-.063 40z" fill="#d1e7ff"/><path d="m365.5 195v56.45c0 8.84-7.16 16-16 16h-41c-8.84 0-16-7.16-16-16v-56.45z" fill="#e8f3ff"/><path d="m365.5 235v16.45c0 8.84-7.16 16-16 16h-41c-8.84 0-16-7.16-16-16v-12.92c13.121-4.566 17.578-3.53 73-3.53z" fill="#d1e7ff"/><path d="m142.157 160.657-28.5 28.5c-3.126 3.124-8.189 3.123-11.314 0l-13.5-13.5c-3.124-3.125-3.124-8.189 0-11.314 3.125-3.123 8.189-3.123 11.314 0l7.843 7.844 22.843-22.844c3.125-3.123 8.189-3.123 11.314 0 3.124 3.125 3.124 8.189 0 11.314zm0 91.686c-3.125-3.123-8.189-3.123-11.314 0l-22.843 22.844-7.843-7.844c-3.125-3.123-8.189-3.123-11.314 0-3.124 3.125-3.124 8.189 0 11.314l13.5 13.5c3.126 3.124 8.189 3.123 11.314 0l28.5-28.5c3.124-3.125 3.124-8.189 0-11.314zm192.343 219.657c0 4.418-3.582 8-8 8h-262c-22.056 0-40-17.944-40-40v-360c0-22.056 17.944-40 40-40h96v-5c0-19.299 15.701-35 35-35s35 15.701 35 35v5h96c22.056 0 40 17.944 40 40v85.667c0 4.418-3.582 8-8 8s-8-3.582-8-8v-85.667c0-13.233-10.767-24-24-24-12.343 0-251.471 0-262 0-13.233 0-24 10.767-24 24v360c0 13.233 10.767 24 24 24h262c4.418 0 8 3.582 8 8zm-158-432h38v-5c0-10.477-8.523-19-19-19s-19 8.523-19 19zm111 38c0-4.418-3.582-8-8-8s-8 3.582-8 8c0 8.822-7.178 16-16 16h-120c-8.822 0-16-7.178-16-16 0-4.418-3.582-8-8-8s-8 3.582-8 8c0 17.645 14.355 32 32 32h120c17.645 0 32-14.355 32-32zm-143 289v18c0 13.233-10.767 24-24 24h-18c-13.233 0-24-10.767-24-24v-18c0-13.233 10.767-24 24-24h18c13.233 0 24 10.767 24 24zm-16 0c0-4.411-3.589-8-8-8h-18c-4.411 0-8 3.589-8 8v18c0 4.411 3.589 8 8 8h18c4.411 0 8-3.589 8-8zm150 5h-27c-4.418 0-8 3.582-8 8s3.582 8 8 8h27c4.418 0 8-3.582 8-8s-3.582-8-8-8zm177-153v190c0 17.645-14.355 32-32 32h-190c-17.645 0-32-14.355-32-32v-190c0-17.645 14.355-32 32-32h190c17.645 0 32 14.355 32 32zm-16 0c0-8.822-7.178-16-16-16h-123v48.449c0 4.411 3.589 8 8 8h41c4.411 0 8-3.589 8-8v-25.449c0-4.418 3.582-8 8-8s8 3.582 8 8v25.449c0 13.233-10.767 24-24 24h-41c-13.233 0-24-10.767-24-24v-48.449h-51c-8.822 0-16 7.178-16 16v190c0 8.822 7.178 16 16 16h190c8.822 0 16-7.178 16-16z" fill="#2e58ff"/></svg>